# xmcd
#
# Track frame offsets:
#	150
#	16042
#	37132
#	54617
#	72099
#	94158
#	112309
#	131896
#	152832
#	171525
#
# Disc length: 2542 seconds
#
# Revision: 0
# Processed by: cddbd v1.5.2PL0 Copyright (c) Steve Scherf et al.
# Submitted via: dBpowerAMP V4.0
#
DISCID=9109ec0a
DTITLE=Nicu Paleru - Eu beau vinu' cu borcanu ...   vol.6
DYEAR=2007
DGENRE=Petrecere
TTITLE0=Bun e vinul tulburel
TTITLE1=Beau cu cana , cu paharul
TTITLE2=Arza-te-ar focul pahar
TTITLE3=Canta lautarii-n struna
TTITLE4=Sa facem necaz la viata
TTITLE5=Lume , lume
TTITLE6=Soacra mare , soacra mare
TTITLE7=Sunt frate cu damigeana
TTITLE8=Viata este ca o carte
TTITLE9=Lumea spune mai Marine
EXTD=Encoded by Adi Terra
EXTT0=
EXTT1=
EXTT2=
EXTT3=
EXTT4=
EXTT5=
EXTT6=
EXTT7=
EXTT8=
EXTT9=
PLAYORDER=
